<svg width="20" height="20" viewBox="0 0 20 20" fill="none" xmlns="http://www.w3.org/2000/svg">
<path d="M13.4493 2.99423C13.9154 2.52814 14.1485 2.2951 14.4066 2.18366C14.7786 2.02309 15.2003 2.02309 15.5723 2.18366C15.8304 2.2951 16.0635 2.52814 16.5295 2.99423C16.9956 3.46031 17.2287 3.69335 17.3401 3.95153C17.5007 4.32347 17.5007 4.74517 17.3401 5.11712C17.2287 5.37529 16.9956 5.60833 16.5295 6.07442L12.5442 10.0598C11.5623 11.0417 11.0713 11.5327 10.4564 11.8236C9.84148 12.1144 9.15053 12.1826 7.76865 12.3189L7.14307 12.3807L7.2048 11.7551C7.34115 10.3732 7.40933 9.68228 7.70022 9.06736C7.99108 8.45244 8.48203 7.96151 9.46394 6.97962L13.4493 2.99423Z" stroke="white" stroke-width="1.19048" stroke-linejoin="round"/>
<path d="M4.76201 12.3809H2.97629C2.20923 12.3809 1.5874 13.0027 1.5874 13.7697C1.5874 14.5368 2.20923 15.1586 2.97629 15.1586H10.516C11.283 15.1586 11.9049 15.7805 11.9049 16.5475C11.9049 17.3146 11.283 17.9364 10.516 17.9364H8.73026" stroke="white" stroke-width="1.19048" stroke-linecap="round" stroke-linejoin="round"/>
</svg>
