<svg width="11" height="10" viewBox="0 0 11 10" fill="none" xmlns="http://www.w3.org/2000/svg">
<path d="M5.83377 7.43058C5.9715 7.43058 6.08703 7.38392 6.18036 7.29058C6.2737 7.19725 6.3202 7.08188 6.31988 6.94447V5.00003C6.31988 4.8623 6.27321 4.74693 6.17988 4.65392C6.08654 4.56091 5.97117 4.51424 5.83377 4.51392C5.69636 4.51359 5.58099 4.56026 5.48766 4.65392C5.39432 4.74757 5.34766 4.86294 5.34766 5.00003V6.94447C5.34766 7.0822 5.39432 7.19774 5.48766 7.29107C5.58099 7.3844 5.69636 7.43091 5.83377 7.43058ZM5.83377 3.54169C5.9715 3.54169 6.08703 3.49503 6.18036 3.40169C6.2737 3.30836 6.3202 3.19299 6.31988 3.05558C6.31955 2.91818 6.27289 2.80281 6.17988 2.70947C6.08687 2.61614 5.9715 2.56947 5.83377 2.56947C5.69604 2.56947 5.58067 2.61614 5.48766 2.70947C5.39465 2.80281 5.34798 2.91818 5.34766 3.05558C5.34733 3.19299 5.394 3.30852 5.48766 3.40218C5.58131 3.49584 5.69668 3.54234 5.83377 3.54169ZM5.83377 9.86114C5.16131 9.86114 4.52937 9.73345 3.93793 9.47808C3.3465 9.22271 2.83203 8.87644 2.39453 8.43926C1.95703 8.00209 1.61076 7.48762 1.35571 6.89586C1.10067 6.3041 0.972981 5.67216 0.972657 5.00003C0.972333 4.3279 1.10002 3.69595 1.35571 3.10419C1.61141 2.51243 1.95768 1.99797 2.39453 1.56079C2.83138 1.12362 3.34585 0.777342 3.93793 0.521972C4.53002 0.266601 5.16196 0.138916 5.83377 0.138916C6.50557 0.138916 7.13752 0.266601 7.7296 0.521972C8.32168 0.777342 8.83615 1.12362 9.273 1.56079C9.70986 1.99797 10.0563 2.51243 10.3123 3.10419C10.5683 3.69595 10.6959 4.3279 10.6949 5.00003C10.6939 5.67216 10.5662 6.3041 10.3118 6.89586C10.0574 7.48762 9.71115 8.00209 9.273 8.43926C8.83486 8.87644 8.32039 9.22287 7.7296 9.47857C7.13881 9.73426 6.50687 9.86179 5.83377 9.86114ZM5.83377 8.88892C6.91942 8.88892 7.83898 8.51218 8.59245 7.75871C9.34592 7.00524 9.72266 6.08568 9.72266 5.00003C9.72266 3.91438 9.34592 2.99482 8.59245 2.24135C7.83898 1.48787 6.91942 1.11114 5.83377 1.11114C4.74812 1.11114 3.82856 1.48787 3.07509 2.24135C2.32162 2.99482 1.94488 3.91438 1.94488 5.00003C1.94488 6.08568 2.32162 7.00524 3.07509 7.75871C3.82856 8.51218 4.74812 8.88892 5.83377 8.88892Z" fill="#BFBFBF"/>
</svg>
