<svg xmlns="http://www.w3.org/2000/svg" fill="#cbd5e1" viewBox="0 0 20 20"><g filter="url(#Logo_svg__a)"><path fill="url(#Logo_svg__b)" d="M3.568 5.375c0-1.765 0-2.647.344-3.321A3.15 3.15 0 0 1 5.289.677C5.963.333 6.845.333 8.609.333h6.016c1.765 0 2.647 0 3.321.344a3.15 3.15 0 0 1 1.377 1.377c.344.674.344 1.556.344 3.32v6.017c0 1.764 0 2.646-.344 3.32a3.15 3.15 0 0 1-1.377 1.377c-.674.344-1.556.344-3.32.344H8.61c-1.765 0-2.647 0-3.321-.344a3.15 3.15 0 0 1-1.377-1.377c-.344-.674-.344-1.556-.344-3.32z"></path></g><g filter="url(#Logo_svg__c)"><path fill="url(#Logo_svg__d)" d="M2.284 6.659c0-1.765 0-2.647.344-3.32A3.15 3.15 0 0 1 4.005 1.96c.674-.343 1.556-.343 3.32-.343h6.016c1.765 0 2.647 0 3.321.343a3.15 3.15 0 0 1 1.377 1.377c.343.674.343 1.556.343 3.321v6.016c0 1.764 0 2.647-.343 3.32a3.15 3.15 0 0 1-1.377 1.378c-.674.343-1.556.343-3.32.343H7.324c-1.764 0-2.646 0-3.32-.343a3.15 3.15 0 0 1-1.377-1.377c-.344-.674-.344-1.557-.344-3.321z"></path></g><g filter="url(#Logo_svg__e)"><path fill="url(#Logo_svg__f)" d="M1 7.943c0-1.764 0-2.647.343-3.32A3.15 3.15 0 0 1 2.72 3.244c.674-.343 1.557-.343 3.321-.343h6.016c1.765 0 2.647 0 3.321.343a3.15 3.15 0 0 1 1.377 1.377c.343.674.343 1.557.343 3.321v6.016c0 1.765 0 2.647-.343 3.32a3.15 3.15 0 0 1-1.377 1.378c-.674.343-1.556.343-3.321.343H6.041c-1.764 0-2.647 0-3.32-.343a3.15 3.15 0 0 1-1.378-1.377C1 16.606 1 15.723 1 13.959z"></path></g><defs><linearGradient id="Logo_svg__b" x1="11.617" x2="11.617" y1="0.333" y2="16.432" gradientUnits="userSpaceOnUse"><stop stop-color="#FF8447"></stop><stop offset="1" stop-color="#B81B03"></stop></linearGradient><linearGradient id="Logo_svg__d" x1="10.333" x2="10.333" y1="1.618" y2="17.716" gradientUnits="userSpaceOnUse"><stop stop-color="#FFC26D"></stop><stop offset="1" stop-color="#EC9F34"></stop></linearGradient><linearGradient id="Logo_svg__f" x1="9.049" x2="9.049" y1="2.902" y2="19" gradientUnits="userSpaceOnUse"><stop stop-color="#6CB5FF"></stop><stop offset="1" stop-color="#1E7BDB"></stop></linearGradient><filter id="Logo_svg__a" width="16.522" height="16.522" x="3.423" y="0.042" color-interpolation-filters="sRGB" filterUnits="userSpaceOnUse"><feFlood flood-opacity="0" result="BackgroundImageFix"></feFlood><feColorMatrix in="SourceAlpha" result="hardAlpha" values="0 0 0 0 0 0 0 0 0 0 0 0 0 0 0 0 0 0 127 0"></feColorMatrix><feOffset dx="0.066" dy="-0.079"></feOffset><feGaussianBlur stdDeviation="0.106"></feGaussianBlur><feColorMatrix values="0 0 0 0 0 0 0 0 0 0 0 0 0 0 0 0 0 0 0.09 0"></feColorMatrix><feBlend in2="BackgroundImageFix" result="effect1_dropShadow_1549_6101"></feBlend><feBlend in="SourceGraphic" in2="effect1_dropShadow_1549_6101" result="shape"></feBlend></filter><filter id="Logo_svg__c" width="16.443" height="16.469" x="2.192" y="1.3" color-interpolation-filters="sRGB" filterUnits="userSpaceOnUse"><feFlood flood-opacity="0" result="BackgroundImageFix"></feFlood><feColorMatrix in="SourceAlpha" result="hardAlpha" values="0 0 0 0 0 0 0 0 0 0 0 0 0 0 0 0 0 0 127 0"></feColorMatrix><feOffset dx="0.026" dy="-0.04"></feOffset><feGaussianBlur stdDeviation="0.046"></feGaussianBlur><feColorMatrix values="0 0 0 0 0 0 0 0 0 0 0 0 0 0 0 0 0 0 0.1 0"></feColorMatrix><feBlend in2="BackgroundImageFix" result="effect1_dropShadow_1549_6101"></feBlend><feColorMatrix in="SourceAlpha" result="hardAlpha" values="0 0 0 0 0 0 0 0 0 0 0 0 0 0 0 0 0 0 127 0"></feColorMatrix><feOffset dx="0.079" dy="-0.146"></feOffset><feGaussianBlur stdDeviation="0.086"></feGaussianBlur><feColorMatrix values="0 0 0 0 0 0 0 0 0 0 0 0 0 0 0 0 0 0 0.09 0"></feColorMatrix><feBlend in2="effect1_dropShadow_1549_6101" result="effect2_dropShadow_1549_6101"></feBlend><feBlend in="SourceGraphic" in2="effect2_dropShadow_1549_6101" result="shape"></feBlend></filter><filter id="Logo_svg__e" width="16.549" height="16.588" x="0.907" y="2.491" color-interpolation-filters="sRGB" filterUnits="userSpaceOnUse"><feFlood flood-opacity="0" result="BackgroundImageFix"></feFlood><feColorMatrix in="SourceAlpha" result="hardAlpha" values="0 0 0 0 0 0 0 0 0 0 0 0 0 0 0 0 0 0 127 0"></feColorMatrix><feOffset dx="0.026" dy="-0.04"></feOffset><feGaussianBlur stdDeviation="0.06"></feGaussianBlur><feColorMatrix values="0 0 0 0 0 0 0 0 0 0 0 0 0 0 0 0 0 0 0.09 0"></feColorMatrix><feBlend in2="BackgroundImageFix" result="effect1_dropShadow_1549_6101"></feBlend><feColorMatrix in="SourceAlpha" result="hardAlpha" values="0 0 0 0 0 0 0 0 0 0 0 0 0 0 0 0 0 0 127 0"></feColorMatrix><feOffset dx="0.132" dy="-0.185"></feOffset><feGaussianBlur stdDeviation="0.113"></feGaussianBlur><feColorMatrix values="0 0 0 0 0 0 0 0 0 0 0 0 0 0 0 0 0 0 0.07 0"></feColorMatrix><feBlend in2="effect1_dropShadow_1549_6101" result="effect2_dropShadow_1549_6101"></feBlend><feBlend in="SourceGraphic" in2="effect2_dropShadow_1549_6101" result="shape"></feBlend></filter></defs></svg>