<svg width="16" height="16" viewBox="0 0 16 16" fill="none" xmlns="http://www.w3.org/2000/svg">
<path d="M14.2226 8.05298L11.4991 6.69048V3.49998C11.4991 3.40715 11.4732 3.31616 11.4244 3.23721C11.3755 3.15827 11.3057 3.09447 11.2226 3.05298L8.22265 1.55298C8.15325 1.5183 8.07673 1.50024 7.99915 1.50024C7.92156 1.50024 7.84505 1.5183 7.77565 1.55298L4.77565 3.05298C4.69261 3.09447 4.62276 3.15827 4.57392 3.23721C4.52509 3.31616 4.4992 3.40715 4.49915 3.49998V6.69098L1.77565 8.05248C1.69253 8.09401 1.62263 8.15788 1.57379 8.23693C1.52495 8.31597 1.4991 8.40706 1.49915 8.49998V12C1.4991 12.0929 1.52495 12.184 1.57379 12.263C1.62263 12.3421 1.69253 12.4059 1.77565 12.4475L4.77565 13.9475C4.84505 13.9822 4.92156 14.0002 4.99915 14.0002C5.07673 14.0002 5.15325 13.9822 5.22265 13.9475L7.99915 12.559L10.7756 13.9475C10.845 13.9822 10.9216 14.0002 10.9991 14.0002C11.0767 14.0002 11.1532 13.9822 11.2226 13.9475L14.2226 12.4475C14.3058 12.4059 14.3757 12.3421 14.4245 12.263C14.4733 12.184 14.4992 12.0929 14.4991 12V8.49998C14.4992 8.40706 14.4733 8.31597 14.4245 8.23693C14.3757 8.15788 14.3058 8.09451 14.2226 8.05298ZM10.4991 6.69048L8.49915 7.69048V5.30848L10.4991 4.30848V6.69048ZM7.99915 2.55848L9.88115 3.49998L7.99915 4.44098L6.11715 3.49998L7.99915 2.55848ZM5.49915 4.30848L7.49915 5.30848V7.69048L5.49915 6.69048V4.30848ZM4.49915 12.691L2.49915 11.691V9.30898L4.49915 10.309V12.691ZM4.99915 9.44098L3.11715 8.49998L4.99915 7.55898L6.88115 8.49998L4.99915 9.44098ZM5.49915 10.309L7.49915 9.30898V11.691L5.49915 12.691V10.309ZM10.4991 12.691L8.49915 11.691V9.30898L10.4991 10.309V12.691ZM10.9991 9.44098L9.11715 8.49998L10.9991 7.55898L12.8811 8.49998L10.9991 9.44098ZM13.4991 11.691L11.4991 12.691V10.309L13.4991 9.30898V11.691Z" fill="#F2F2F2"/>
</svg>
